<?xml version="1.0" encoding="utf-8"?>
<!-- Generator: Adobe Illustrator 25.0.0, SVG Export Plug-In . SVG Version: 6.00 Build 0)  -->
<svg version="1.1" id="圖層_1" xmlns="http://www.w3.org/2000/svg" xmlns:xlink="http://www.w3.org/1999/xlink" x="0px" y="0px"
	 viewBox="0 0 1328 1502.9" style="enable-background:new 0 0 1328 1502.9;" xml:space="preserve">
<style type="text/css">
	.st0{fill:#0D1C39;}
</style>
<path class="st0" d="M720.8,30.5c-58.3-2.8-111.2,17.3-146.6,64.7c-16.9,22.8-28.1,48.6-39.4,74.5c-23.6,54.2-38,113.9-71.6,163.2
	c-22,32.7-58.6,56.9-58.6,56.9c-22.3,22.9-45.5,57.5-67.7,109.3c-16,37.4-32,78.3-51.5,94.7c0,0.3,34.1,3.9,70.8-62.1
	c0,0,4.7,54.1-40.6,139.4c0,0,47.9-21.5,96.3-124.7c0,0,24.7,16.3-16.2,84.3C359.1,691.9,383.4,764,383.4,764s11.3-60.1,68.2-153.2
	c23-37.7,7.4-70.4,23.7-125.7c-3.7,157.1,38.4,277.5,103.7,420.3c-5.1,19.5-8,59.7,1.3,110.3c12.7,69.3-11.3,49.2,1.6,171.7
	c12.7,122.6,103.2,186.2,103.2,186.2c-100.5-177.3-30.4-256.5-30.4-256.5s23.5,62.3,97.2,122.3c73.7,60-3.4,177.8-3.4,177.8
	s48.5-19.4,72-112.5c23.4-93-110.9-230-55.3-237.2c55.6-7.2,118.4,90.9,118.4,90.9s19.9-148.8-114.3-208.9
	C644,893.3,625.8,828.3,623.9,819.8c-0.3-4-0.7-8-0.9-12.2c-8.2-124.5,19.5-242.9,62.2-340.3c-9.3,39.9,1,59.4,12.3,88
	c10.4,26.1,22.5,53.8,20.6,71.6c0,0,18.9-15.6,4.9-66c0,0,28.9,23.7,48.1,87.6c0,0,13.5-34.6-12.9-108.8c0,0,20.5-4.7,33.3,48.8
	c11.5,48.1,59.2,70.4,59.2,70.4s-23.9-34.7-41.1-108.3c-6.3-27.1-37.2-46.4-57.1-75.9c-46.6-145.1,68.4-194.8,11.2-403.1
	C755.5,41.5,744.7,31.6,720.8,30.5z"/>
</svg>
