<?xml version="1.0" encoding="utf-8"?>
<!-- Generator: Adobe Illustrator 25.0.0, SVG Export Plug-In . SVG Version: 6.00 Build 0)  -->
<svg version="1.1" id="圖層_1" xmlns="http://www.w3.org/2000/svg" xmlns:xlink="http://www.w3.org/1999/xlink" x="0px" y="0px"
	 viewBox="0 0 550 469" style="enable-background:new 0 0 550 469;" xml:space="preserve">
<style type="text/css">
	.st0{display:none;}
	.st1{display:inline;fill:#2E3192;}
	.st2{fill:#EECE94;}
	.st3{fill:#8B6F42;}
	.st4{fill:#403934;}
	.st5{fill:#F19332;}
	.st6{fill:#4D4D4D;}
	.st7{fill:#292421;}
	.st8{fill:#F5AB1E;}
	.st9{fill:#EF8621;}
	.st10{fill:#CA6931;}
	.st11{fill:#534740;}
	.st12{fill:#98B695;}
	.st13{fill:#DFECC9;}
	.st14{fill:#DCCFBD;}
	.st15{fill:#036EB8;}
	.st16{fill:#D8D9D9;}
	.st17{fill:#3E3E3E;}
	.st18{fill-rule:evenodd;clip-rule:evenodd;fill:#FFD9A6;}
	.st19{fill-rule:evenodd;clip-rule:evenodd;fill:#39474B;}
	.st20{fill-rule:evenodd;clip-rule:evenodd;fill:#8ACFE4;}
	.st21{fill-rule:evenodd;clip-rule:evenodd;fill:#1094BE;}
	.st22{fill-rule:evenodd;clip-rule:evenodd;fill:#F5DB6F;}
	.st23{fill-rule:evenodd;clip-rule:evenodd;fill:#F5BE56;}
	.st24{fill-rule:evenodd;clip-rule:evenodd;fill:#DE0211;}
	.st25{fill-rule:evenodd;clip-rule:evenodd;fill:#FFC900;}
</style>
<g id="圖層_2_1_" class="st0">
	<rect x="-1013" y="-488" class="st1" width="2583" height="1366"/>
</g>
<g id="圖層_1_1_">
	<g>
		<g>
			<g>
				<path class="st2" d="M428.2,30.7c-83.5,2.1-210.5,76-278.4,130.7c-7.9,6.4-15.3,13.1-22.1,19.9c-0.9,0.9-1.7,1.7-2.6,2.6
					c-0.2,0.2-0.3,0.4-0.5,0.5c-0.1,0.1-0.1,0.1-0.2,0.2c-1.3,1.4-2.6,2.7-3.9,4.1l-0.1,0.1l-0.1,0.1c-4.8,5.2-9.4,10.5-13.7,15.7
					c-0.8,1-1.6,1.9-2.3,2.9c-32.2,40.7-49,82.3-54.9,101.7c-1.9,6.3-0.2,13.2,4.6,17.7l97,93.4c3.6,3.4,8.4,5.2,13.3,4.7
					C311.4,411.2,510.2,28.6,428.2,30.7z M440.8,49.9c2.3,16.6-4.8,45.6-19.7,81.8c-15.1,36.4-37.4,77.8-62.9,116.6
					c-4.3,6.6-8.7,13-13.1,19.4c-11.6,16.6-23.5,32.2-35.5,46.7c-13,15.7-26.2,30.1-39.2,42.7c-16.2,15.7-32.1,28.6-47.3,38.5
					c-2.9,1.9-5.3,3.5-7.4,4.8c-0.1,0.1-0.2,0.1-0.2,0.2c-0.1,0.1-0.2,0.1-0.3,0.2s-0.2,0.1-0.3,0.2c-0.2,0.1-0.4,0.3-0.6,0.4
					c-0.2,0.1-0.4,0.3-0.6,0.4c-0.3,0.2-0.6,0.4-0.8,0.5s-0.4,0.2-0.5,0.3c-0.2,0.1-0.4,0.2-0.5,0.3c-0.1,0.1-0.2,0.1-0.3,0.2
					c-0.2,0.1-0.3,0.2-0.5,0.3c-0.1,0-0.2,0.1-0.2,0.1c-0.3,0.2-0.6,0.4-0.9,0.5c-0.1,0-0.1,0.1-0.2,0.1c-0.1,0-0.1,0.1-0.2,0.1
					c-0.1,0.1-0.3,0.1-0.4,0.2c-0.3,0.1-0.5,0.3-0.8,0.4c-0.3,0.2-0.6,0.3-0.9,0.4c-0.1,0-0.1,0-0.2,0.1c-0.4,0.1-0.7,0.3-1,0.4
					c-0.9,0.3-1.7,0.4-2.4,0.3c-0.6,0-1.2-0.2-1.8-0.4c-0.2-0.1-0.5-0.2-0.7-0.3c-0.5-0.2-1-0.5-1.5-0.9
					C195.8,401.7,69.6,282,69.4,277.6c-0.2-4.3-3.8,0.9,14.9-30.3c6.8-11.3,14.1-22,21.8-32.1c2.8-3.6,5.6-7.2,8.5-10.6
					c0.8-0.9,1.5-1.8,2.3-2.7c1.5-1.7,3-3.4,4.5-5.1c0.1-0.1,0.2-0.2,0.3-0.4c2.1-2.3,4.2-4.6,6.4-6.8c0.2-0.3,0.5-0.5,0.7-0.8
					c0.8-0.8,1.5-1.6,2.3-2.3c7.3-7.3,14.9-14.2,22.8-20.5c0.8-0.6,1.5-1.2,2.3-1.8c12.7-10.1,27.3-20.8,43.2-31.5
					c54.9-37,125.1-74.3,184.6-89.2c16.4-4.1,31.4-6.4,44.6-6.7C433.6,36.6,439.2,38.1,440.8,49.9z"/>
				<g>
					<path class="st3" d="M358.2,248.3c25.5-38.8,47.8-80.2,62.9-116.6c15-36.2,22-65.2,19.7-81.8c-1.6-11.8-7.2-13.3-12.5-13.2
						c-13.2,0.3-28.2,2.6-44.6,6.7c-59.5,15-129.7,52.2-184.6,89.3l146,135C349.5,261.4,353.9,254.9,358.2,248.3z"/>
				</g>
				<g>
					<path class="st3" d="M223.1,395.6c15.2-9.9,31.1-22.9,47.3-38.5c13-12.6,26.2-26.9,39.2-42.7L155.9,164.2
						c-0.8,0.6-1.5,1.2-2.3,1.8c-26.8,21.6-50.2,49-69.6,81.3c-18.7,31.2-15.1,26-14.9,30.3c0.2,4.3,126.5,124,130.5,126.8
						C204.7,408,207,406.1,223.1,395.6z"/>
				</g>
				<g>
					<path class="st2" d="M345.1,267.7l-146-135c-15.9,10.7-30.5,21.4-43.2,31.5l153.7,150.2C321.6,299.9,333.5,284.3,345.1,267.7z"
						/>
				</g>
				<g>
					<path class="st4" d="M164.1,172.2l-8.2-8c-0.8,0.6-1.5,1.2-2.3,1.8c-26.8,21.6-50.2,49-69.6,81.3c-18.7,31.2-15.1,26-14.9,30.3
						c0.2,4.3,126.5,124,130.5,126.8c4.2,2.8,6.5,2.1,16-4.1c-20.4-18.5-126.5-120-127.2-123.9c-0.7-3.6-3.8,0.9,14.9-30.3
						C120.6,217.4,141,192.6,164.1,172.2z"/>
				</g>
				<g>
					<path class="st4" d="M437.5,40.4c-2.5-3.2-5.9-3.7-9.1-3.7c-13.2,0.3-28.2,2.6-44.6,6.7c-59.6,15-129.8,52.2-184.7,89.3
						l146,135c2.5-3.6,5-7.3,7.5-11L221.5,135.4c54.9-37,125.1-74.3,184.6-89.2C417.2,43.4,427.7,41.5,437.5,40.4z"/>
				</g>
			</g>
			<g>
				<g>
					<path class="st4" d="M130.2,207.6c3.7-6.7,1.1-13.9-1.6-18.7c-1.4-2.5-2.9-4.4-3.5-5c-0.2-0.2-0.2-0.3-0.2-0.3l-0.3,0.8
						l-0.1,0.2l-3.1,6.8l-0.5,1.1l-4.2,9.4l-0.9,2.1l-4.4,9.8c0,0,1,6.2,2.8,15.3c1.1,5.5,2.4,12,3.9,18.8c0.4,1.9,0.9,3.9,1.3,5.9
						c0.3,1.5,0.7,3,1.1,4.5c5.2,21.7,11.8,42.9,17.6,41.9l0,0c4.2-0.7,2.9-9.8-3.7-19.5c-1.3-1.9-1.5-18.4,0.7-26.2
						c0-0.1,0.1-0.2,0.1-0.3c3.3-11.1,7.1-18.4,3.4-25.6C135.8,223.8,124.8,217.3,130.2,207.6C130.2,207.7,130.2,207.6,130.2,207.6z
						"/>
				</g>
				<g>
					<path class="st5" d="M101,240.5c1.2,4.9,4.4,8.9,8.6,11.2c1.9,1.1,4.1,1.8,6.3,2.1c2.1,0.3,4.3,0.2,6.5-0.4
						c1.2-0.3,2.4-0.7,3.5-1.3c7.4-3.6,11.5-11.9,9.4-20.2c-0.5-1.9-1.3-3.7-2.3-5.3l0,0c-0.8-1.3-1.8-2.4-2.9-3.4
						c-1.3-1.9-2.5-3.9-3.6-6.1l0,0c0,0-0.1-0.1-0.1-0.2v-0.1c0-0.1-0.1-0.2-0.1-0.3c-0.1-0.1-0.1-0.3-0.2-0.4
						c-0.1-0.2-0.2-0.4-0.3-0.7c0-0.1-0.1-0.2-0.1-0.3c-0.1-0.1-0.1-0.3-0.2-0.4c-0.1-0.3-0.2-0.5-0.3-0.8c-0.1-0.3-0.2-0.6-0.4-0.8
						l0,0c-0.2-0.6-0.5-1.1-0.7-1.7c0,0,0-0.1-0.1-0.1c-0.1-0.2-0.2-0.5-0.3-0.7c-0.1-0.1-0.1-0.3-0.2-0.4c-0.2-0.5-0.4-1-0.5-1.5
						c-0.3-0.8-0.5-1.5-0.7-2.2c0-0.1-0.1-0.3-0.1-0.4c-0.1-0.3-0.2-0.5-0.2-0.8c0-0.1-0.1-0.3-0.1-0.4c-0.2-0.5-0.3-1-0.4-1.5v-0.1
						c0-0.1-0.1-0.2-0.1-0.3c-0.1-0.3-0.1-0.5-0.2-0.8l0,0c0-0.2-0.1-0.3-0.1-0.4c0-0.1,0-0.2-0.1-0.3c0-0.1-0.1-0.2-0.1-0.3
						c-0.2-0.7-0.3-1.3-0.4-1.5c0-0.1,0-0.2,0-0.2c-1.4,2.7-3.9,4.7-7.1,5.5c-4.4,1.1-8.9-0.6-11.6-4.1c0.2,0.4,7.7,15,2.1,24.9
						C100.9,230,99.7,235.3,101,240.5z"/>
				</g>
				<g>
					<path class="st5" d="M133.4,302c8.4-0.3,6.3-8.7,0.9-12.9c-4.7-3.7-5.7-14-5.2-17.2c0.6-3.8,0.6-9.7-1.3-15.3
						c-0.5-1.5-1.1-3-1.8-4.4c-1.1,0.5-2.2,1-3.5,1.3c-2.2,0.6-4.4,0.7-6.5,0.4c0,0,1.2,2.1,2.5,5.1c1.9,4.5,4.1,11.2,2.9,16.3
						C119.4,283.9,125,302.3,133.4,302z"/>
				</g>
				<g>
					<path class="st6" d="M103.2,185.9c-0.2,0.2-0.4,0.4-0.6,0.6c-0.1,0.1-0.1,0.1-0.2,0.2l0,0c-2.4,2.6-3.5,6.2-2.7,9.8
						C99,192.8,100.8,188.5,103.2,185.9z"/>
				</g>
				<g>
					<path class="st7" d="M121.4,191.8c0,0.1,0,0.2,0.1,0.3c0,0,0,0,0,0.1s0,0.2,0,0.2c0,0.2,0.1,0.5,0.1,0.7c0,0.1,0,0.2,0,0.3
						s0,0.2,0,0.3s0,0.1,0,0.2c0,0.3,0,0.7,0,1c0,0.1,0,0.1,0,0.2c0,0.2,0,0.4-0.1,0.6c0,0.1,0,0.2-0.1,0.4c0,0.1,0,0.1,0,0.2
						c0,0.2-0.1,0.3-0.1,0.5c0,0.1-0.1,0.2-0.1,0.3c0,0,0,0,0,0.1s0,0.2-0.1,0.2c0,0.1-0.1,0.2-0.1,0.3c-0.1,0.2-0.1,0.3-0.2,0.5
						c-0.1,0.3-0.2,0.5-0.3,0.8c-0.1,0.2-0.2,0.4-0.3,0.6l0,0c0,0,0,0.1,0,0.2c0.1,0.3,0.2,0.8,0.4,1.5c0,0.1,0.1,0.2,0.1,0.3
						s0,0.2,0.1,0.3c0,0.1,0.1,0.3,0.1,0.4l0,0c0.1,0.2,0.1,0.5,0.2,0.8c0,0.1,0.1,0.2,0.1,0.3c0,0,0,0,0,0.1c0.1,0.5,0.3,1,0.4,1.5
						c0.2,0.5,0.3,1,0.5,1.6c0.2,0.7,0.5,1.4,0.7,2.2c0.2,0.5,0.4,1,0.5,1.5c0,0.1,0.1,0.3,0.2,0.4c0.1,0.2,0.2,0.5,0.3,0.7
						c0,0,0,0.1,0.1,0.1c0.2,0.6,0.4,1.1,0.7,1.7l0,0c0.1,0.3,0.2,0.6,0.4,0.8c0.1,0.3,0.2,0.5,0.3,0.8c0.1,0.1,0.1,0.3,0.2,0.4
						c0,0.1,0.1,0.2,0.1,0.3c0.1,0.2,0.2,0.4,0.3,0.7c0.1,0.1,0.1,0.3,0.2,0.4c0,0.1,0.1,0.2,0.1,0.3c-0.2-0.5-0.7-1.6-1-3.1
						c-0.6-2.9-0.9-7.4,1.2-12.7c1.8-4.3,1.9-8.3,1.2-11.3c-0.6-2.7-1.9-4.7-3.3-5.3h-0.1c-0.4-0.2-0.7-0.2-1.1-0.1
						c-2.5,0.4-2.8,3.3-2.9,4.5c0,0.3,0,0.5,0,0.5c0,0.1,0.1,0.2,0.1,0.3c0.1,0.2,0.2,0.4,0.2,0.5c0.1,0.4,0.3,0.8,0.4,1.1
						c0,0.1,0,0.2,0.1,0.2v0.1C121.4,191.6,121.4,191.7,121.4,191.8z"/>
				</g>
				<g>
					<path class="st5" d="M99.7,196.6c0,0,0-0.1,0-0.2c-0.8-3.6,0.4-7.2,2.7-9.8l0,0c0.1-0.1,0.1-0.1,0.2-0.2
						c0.2-0.2,0.4-0.4,0.6-0.6c0,0-0.4-1.5-0.9-3.4l0,0c-1-5.5-2.3-14.9-7.8-14c-7.7,1.2,5.2,28.5,5.2,28.5
						C99.7,196.8,99.7,196.7,99.7,196.6z"/>
				</g>
				<g>
					<path class="st8" d="M105.6,204.2c8.9-4.3,13.9-17.1,9.3-26.2c-2.1,1.3-3.5,5.1-3.5,5.1c-0.4,0-0.7,0-1.1,0
						c-0.3-0.5-3.4-6-4.6-5.9c-3.2,0.4-2.6,7.9-2.5,8.6l-0.1,0.1c-0.2,0.2-0.4,0.4-0.6,0.6c-0.1,0.1-0.1,0.1-0.2,0.2l0,0
						c-2.4,2.6-3.5,6.2-2.7,9.8c0,0.1,0,0.1,0,0.2c0,0.1,0,0.2,0.1,0.3c0.4,1.5,1,2.9,1.9,4l0,0
						C102.8,202.3,104.1,203.4,105.6,204.2z"/>
				</g>
				<g>
					<path class="st9" d="M105.6,204.2c2.3,1.1,5,1.5,7.6,0.8c3.2-0.8,5.7-2.9,7.1-5.5l0,0c1.3-2.4,1.7-5.2,1-8
						c-0.2-0.8-0.5-1.6-0.9-2.3c-0.2-0.4-0.5-0.9-0.8-1.3c-0.8-1.2-1.4-2.6-1.5-4.1c-0.3-2.6-0.8-6.2-1.7-6.3
						c-0.6,0-1.1,0.1-1.6,0.4C119.5,187.1,114.6,199.8,105.6,204.2z"/>
				</g>
				<g>
					<path class="st10" d="M119.4,249.3c-3.3,1.5-7.2,2.4-9.8,2.4c1.9,1.1,4.1,1.8,6.3,2.1c0,0,1.2,2.1,2.5,5.1c0,0,0.9,2.5,2.6,3.4
						c2.7,1.5,8.3,1.9,8.3,1.9c-0.3-6-2.6-10.7-3.3-12.1c7.4-3.6,11.5-11.9,9.4-20.2c-0.5-1.9-1.3-3.7-2.3-5.3l0,0
						c-0.8-1.3-1.8-2.9-2.7-4.1c-1.4-1.8-2.7-3.3-3.8-5.4l0,0c0,0-0.1-0.1-0.1-0.2v-0.1c-0.2-0.5-0.7-1.6-1-3.1
						c-0.6-2.9-0.9-7.4,1.2-12.7c1.8-4.3,1.9-8.3,1.2-11.3c-0.6-2.7-1.9-4.7-3.3-5.3h-0.1c-0.4-0.2-0.7-0.2-1.1-0.1
						c-2.5,0.4-2.8,3.3-2.9,4.5l-0.1,0.1l0.5,1.2c0,0,0.6,0.8,0.7,2.8c0.1,1.3,1,10.8-11.1,12.5c-3,0.4,6,10.8,9.3,14.3
						c2.7,2.8,11.3,13.8,8.4,21C126.6,244.5,122.3,248,119.4,249.3z"/>
				</g>
			</g>
			<g>
				<g>
					<g>
						<path class="st11" d="M383.6,82.9c-50.6,10.5-68.1,66.4-68.1,66.4s11.3,11.2,68.4-3.8C422.8,135.4,404.9,78.5,383.6,82.9z"/>
					</g>
				</g>
				<g>
					<g>
						<path class="st11" d="M304.1,118.5c0.6-0.8,0.4-2-0.4-2.5c-0.8-0.6-1.9-0.4-2.5,0.4c-0.2,0.3-5.7,8.1-4.1,14.9
							c1.6,6.7,10,11.7,10.4,11.9s0.9,0.3,1.4,0.2s0.9-0.4,1.1-0.8c0.5-0.9,0.2-2-0.7-2.5c-2.1-1.2-7.6-5.3-8.7-9.6
							C299.4,125.3,304,118.6,304.1,118.5z"/>
					</g>
					<g>
						<g>
							<path class="st12" d="M374,84.6l-63.8,16c-6.1,1.5-9.9,7.8-8.3,13.9l7.7,30.9c1.5,6.1,7.8,9.9,13.9,8.3l63.8-16
								c6.1-1.5,9.9-7.8,8.3-13.9L388,92.9C386.4,86.8,380.2,83.1,374,84.6z"/>
						</g>
					</g>
					<g>
						<g>
							<path class="st13" d="M362.7,103.4l-35,8.8c-1.9,0.5-3.1,2.5-2.6,4.4l4.2,16.8c0.5,1.9,2.5,3.1,4.4,2.6l35-8.8
								c1.9-0.5,3.1-2.5,2.6-4.4l-4.2-16.8C366.6,104.1,364.6,102.9,362.7,103.4z"/>
						</g>
					</g>
					<g>
						<path class="st14" d="M312.5,109.5l64.1-16.1c0.2,0,0.3-0.2,0.2-0.4c0-0.2-0.2-0.3-0.4-0.2l-64.1,16.1c-0.2,0-0.3,0.2-0.2,0.4
							C312.1,109.5,312.3,109.6,312.5,109.5z"/>
						<path class="st14" d="M376.7,94.2l-64.1,16.1c-0.2,0-0.3,0.2-0.2,0.4c0,0.2,0.2,0.3,0.4,0.2l64.1-16.1c0.2,0,0.3-0.2,0.2-0.4
							C377,94.3,376.9,94.2,376.7,94.2z"/>
						<path class="st14" d="M377,95.6l-64,16.1c-0.2,0-0.3,0.2-0.2,0.4c0,0.2,0.2,0.3,0.4,0.2l64.1-16.1c0.2,0,0.3-0.2,0.2-0.4
							C377.4,95.7,377.2,95.6,377,95.6z"/>
						<path class="st14" d="M377.4,97l-64.1,16c-0.2,0-0.3,0.2-0.2,0.4c0,0.2,0.2,0.3,0.4,0.2l64.1-16.1c0.2,0,0.3-0.2,0.2-0.4
							C377.7,97,377.5,96.9,377.4,97z"/>
						<path class="st14" d="M377.7,98.3l-64.1,16.1c-0.2,0-0.3,0.2-0.2,0.4c0,0.2,0.2,0.3,0.4,0.2l64.1-16.1c0.2,0,0.3-0.2,0.2-0.4
							C378,98.4,377.9,98.3,377.7,98.3z"/>
					</g>
					<path class="st14" d="M383.4,124.2l-64.1,16.1c-0.2,0-0.3,0.2-0.2,0.4c0,0.2,0.2,0.3,0.4,0.2l64.1-16.1c0.2,0,0.3-0.2,0.2-0.4
						C383.7,124.2,383.5,124.1,383.4,124.2z"/>
					<path class="st14" d="M383.7,125.5l-64.1,16.1c-0.2,0-0.3,0.2-0.2,0.4c0,0.2,0.2,0.3,0.4,0.2l64.1-16.1c0.2,0,0.3-0.2,0.2-0.4
						C384,125.6,383.9,125.5,383.7,125.5z"/>
					<path class="st14" d="M384,126.9L320,143c-0.2,0-0.3,0.2-0.2,0.4c0,0.2,0.2,0.3,0.4,0.2l64.1-16.1c0.2,0,0.3-0.2,0.2-0.4
						C384.4,127,384.2,126.9,384,126.9z"/>
					<path class="st14" d="M384.4,128.3l-64.1,16.1c-0.2,0-0.3,0.2-0.2,0.4c0,0.2,0.2,0.3,0.4,0.2l64.1-16.1c0.2,0,0.3-0.2,0.2-0.4
						S384.5,128.2,384.4,128.3z"/>
					<path class="st14" d="M384.7,129.6l-64.1,16.1c-0.2,0-0.3,0.2-0.2,0.4c0,0.2,0.2,0.3,0.4,0.2l64.1-16.1c0.2,0,0.3-0.2,0.2-0.4
						C385.1,129.7,384.9,129.6,384.7,129.6z"/>
				</g>
			</g>
		</g>
		<g>
			<g>
				<path class="st15" d="M454.3,326.5c-2.9,0-5.5,1.3-7.4,3.2c-1.8,2-3,4.6-2.9,7.5c0,3,1.3,5.6,3.2,7.4c2,1.9,4.6,3.1,7.5,3
					c3,0,5.6-1.3,7.4-3.2c1.9-1.9,3.1-4.5,3-7.5c0-2.9-1.3-5.5-3.2-7.4C459.9,327.6,457.2,326.5,454.3,326.5z M461,343.4
					c-1.6,1.7-3.9,2.8-6.4,2.8s-4.8-0.9-6.5-2.6c-1.6-1.6-2.8-3.9-2.8-6.4s1-4.8,2.6-6.5c1.6-1.6,3.9-2.7,6.4-2.7s4.8,0.9,6.5,2.5
					c1.7,1.7,2.8,3.9,2.8,6.4C463.6,339.4,462.6,341.7,461,343.4z"/>
				<path class="st15" d="M454.1,315c-6.1,0.1-11.6,2.6-15.5,6.7c-3.9,4-6.3,9.7-6.2,15.7c0.1,6.1,2.6,11.6,6.7,15.5
					c4,3.9,9.6,6.3,15.7,6.2c6.1-0.1,11.6-2.6,15.5-6.7c3.9-4,6.3-9.6,6.2-15.7c-0.1-6-2.6-11.6-6.7-15.5
					C465.7,317.3,460.2,314.9,454.1,315z M469.2,351.4c-3.7,3.8-8.8,6.2-14.5,6.3c-5.7,0.1-10.9-2.2-14.7-5.9
					c-3.8-3.7-6.1-8.8-6.2-14.5s2.1-10.9,5.8-14.7c3.7-3.8,8.8-6.2,14.5-6.2c5.7-0.1,10.9,2.1,14.7,5.8c3.8,3.7,6.1,8.8,6.2,14.5
					C475.1,342.4,472.9,347.6,469.2,351.4z"/>
				<path class="st15" d="M477.8,313c-6.2-6-14.6-9.6-23.9-9.5c-9.2,0.1-17.6,4-23.6,10.2c-5.9,6.1-9.5,14.5-9.4,23.8
					s4,17.6,10.1,23.6c6.2,6,14.6,9.6,23.9,9.5c9.2-0.1,17.6-4,23.6-10.2c5.9-6.2,9.6-14.5,9.5-23.9
					C487.8,327.3,483.9,319,477.8,313z M477.5,359.4c-5.8,5.9-13.7,9.6-22.5,9.8c-8.8,0.1-16.9-3.3-22.8-9
					c-5.8-5.7-9.6-13.7-9.8-22.5c-0.1-8.8,3.4-16.9,9-22.8c5.8-5.8,13.7-9.6,22.5-9.8c8.9-0.1,16.9,3.4,22.8,9
					c5.9,5.8,9.6,13.7,9.8,22.5C486.6,345.4,483.2,353.5,477.5,359.4z"/>
			</g>
			<path class="st16" d="M494,249.7c0,0-24.4,23.7-36.2,84l-2.1-0.4c11.7-61.1,36.6-85.2,36.8-85.2L494,249.7z"/>
			<g>
				<path class="st17" d="M283.5,158c-7.1-7.1-19-7.1-26.3,0.3l-40.5,40.1c-7.3,7.4-7.6,19.2-0.3,26.5c7.2,7.1,19,7.1,26.4-0.3
					l40.3-40.1C290.6,177.1,290.7,165.3,283.5,158z"/>
				<path class="st17" d="M315.8,190.6c-7.1-7.3-19-7.3-26.3,0.1L249,230.8c-7.4,7.4-7.6,19.2-0.3,26.5c7.1,7.1,19,7.1,26.3-0.3
					l40.5-40.1C322.9,209.5,323,197.7,315.8,190.6z"/>
			</g>
			<path class="st18" d="M256.9,153.7c8.6-1.9,17.3-4.3,26.2-3.6c7.7,0.8,9.7,8.3,5.7,15c-2.6,4.7-8,10.4-12.9,6.2
				c-7.5-6.2-6.8-8.8-15.7-6.1C259.1,161.6,258,157.6,256.9,153.7L256.9,153.7z"/>
			<path class="st19" d="M284.9,158.1c69.7,29.3,139.6,58.3,209,88c3.3,1.5,1.9,6.2-2.3,4.4c-70.1-28.2-140.2-56.5-210.2-84.7
				C277,164.3,280.2,156.2,284.9,158.1L284.9,158.1z"/>
			<path class="st18" d="M339.4,214.1c5.9-6.6,12.3-13.2,16-21.4c3.2-7.2-2.3-12.5-10-12.4c-5.4,0.1-13,2-11.8,8.3
				c1.7,9.6,4.2,10.2-2.5,16.7C333.9,208.3,336.6,211.1,339.4,214.1L339.4,214.1z"/>
			<path class="st20" d="M223,281.7c-27.6-17.3-46.9-35.4-44.1-69.1c3.9-48.9,38.5-62.9,85.6-64.2c1.5,7.7,3.2,12.2,2.4,18.7
				c-33.8,14-53.8,22-41.2,52.6c46.8,35.8,64.8,26.7,107.4-24c6.7,5.3,9.5,7.3,13.1,14.2c-8.9,20.8-31,48.1-52.3,66.1
				C270.1,295.7,250.3,298.8,223,281.7L223,281.7z"/>
			<path class="st21" d="M225.7,190.9c-4.9,7-5.2,15.8,0,28.7c31.7,24.3,50.2,27.9,72,12c-3.5,8.2-9,16.3-16.1,23.5
				c-22.8,22.4-54.4,27-71,10.2c-16.4-16.7-11.5-48.3,11.1-70.8C223,193.4,224.4,192.2,225.7,190.9L225.7,190.9z"/>
			<path class="st22" d="M216.4,271.3c-17.2-9.9-22.9-32-12.6-49.4c10.3-17.4,32.6-23.5,49.7-13.5c17.2,9.9,22.9,32.1,12.6,49.5
				C255.7,275.3,233.4,281.4,216.4,271.3L216.4,271.3z"/>
			<path class="st23" d="M243.7,204.6c3.3,0.9,6.7,2,9.7,3.9c9,5.2,14.9,13.7,16.8,23.2c-1.2,3.6-3.1,7.3-5.6,11
				c-10.6,15.4-29.4,23.4-41.9,17.9c-12.3-5.6-13.8-22.5-3-37.9C226,213.8,234.9,207.4,243.7,204.6L243.7,204.6z"/>
			<path class="st22" d="M222.7,260.8c-11.4-6.6-15.1-21.2-8.4-32.8c6.8-11.4,21.5-15.4,33-8.8c11.3,6.5,15,21.2,8.2,32.7
				C248.7,263.3,234,267.3,222.7,260.8L222.7,260.8z"/>
			<path class="st24" d="M461.5,337.1c0.1,3.3-2.5,5.9-5.8,6s-5.9-2.5-6-5.8c0.1-2.9,3.2-10.8,7.2-10.1
				C460.2,327.1,461.4,334.6,461.5,337.1L461.5,337.1z"/>
			<path class="st25" d="M461.5,337.1c0,0.2,0,0.3,0,0.6c-3.7,3.5-10.4,2.3-11.7-1.6c0.3-1.1,0.6-2.3,1.2-3.5
				c1.2,1.5,4.9,5.1,10.1,1.5C461.4,335.2,461.4,336.5,461.5,337.1L461.5,337.1z"/>
		</g>
	</g>
</g>
</svg>
