<?xml version="1.0" encoding="utf-8"?>
<!-- Generator: Adobe Illustrator 25.0.0, SVG Export Plug-In . SVG Version: 6.00 Build 0)  -->
<svg version="1.1" id="圖層_1" xmlns="http://www.w3.org/2000/svg" xmlns:xlink="http://www.w3.org/1999/xlink" x="0px" y="0px"
	 viewBox="0 0 1328 1386.8" style="enable-background:new 0 0 1328 1386.8;" xml:space="preserve">
<style type="text/css">
	.st0{fill:#D14848;}
</style>
<path class="st0" d="M519.1,265.1c54.9-284.2,19.5-154.4,61.5-51.6c50.6,124.2-2.9,152.9,27,211C684.9,574,735.1,732.8,734.3,901.4
	c36.4,23.2,68,43.3,111.6,71c-20.1,13.5-25.5,20-31.7,20.8c-155.4,20.7-73.8,332.9-309.5,330.3c-24-0.3-35.1-9.8-44.5-39.5
	c-68.2-216.7,60.5-265.1-13.2-426.3c12.9-6.4,1.4-13.4,67.3,49.7c49.8-109.4,75.3-227.7,60.9-367.7
	c-15.8-152.3-92.3-229.8-186.5-289.8C426.1,210.5,449.7,214.1,519.1,265.1z"/>
</svg>
