<?xml version="1.0" encoding="utf-8"?>
<!-- Generator: Adobe Illustrator 25.0.0, SVG Export Plug-In . SVG Version: 6.00 Build 0)  -->
<svg version="1.1" id="圖層_1" xmlns="http://www.w3.org/2000/svg" xmlns:xlink="http://www.w3.org/1999/xlink" x="0px" y="0px"
	 viewBox="0 0 1328 1386.8" style="enable-background:new 0 0 1328 1386.8;" xml:space="preserve">
<style type="text/css">
	.st0{fill:#D14848;}
</style>
<path class="st0" d="M195.8,698.2c-279.3-75.7-152.6-30.9-46.9-65.1c127.6-41.3,152.3,14.2,212.4-11.4
	c154.7-66.1,316.8-104.4,484.9-91.3c25.8-34.6,48.1-64.6,79-106.1c12,21,18,26.9,18.4,33.2c9.2,156.5,326.6,98.1,306.7,332.9
	c-2.1,23.9-12.3,34.2-42.7,41.4c-221.1,52.1-260-79.8-426.1-18.2c-5.4-13.4-13.2-2.3,54.5-63.5c-105.5-57.7-221.5-91.9-362.2-87.8
	c-153,4.5-235.9,75.1-302.8,164.7C134.5,786.9,139.8,763.6,195.8,698.2z"/>
</svg>
