<?xml version="1.0" encoding="utf-8"?>
<!-- Generator: Adobe Illustrator 25.0.0, SVG Export Plug-In . SVG Version: 6.00 Build 0)  -->
<svg version="1.1" id="圖層_1" xmlns="http://www.w3.org/2000/svg" xmlns:xlink="http://www.w3.org/1999/xlink" x="0px" y="0px"
	 viewBox="0 0 1328 785" style="enable-background:new 0 0 1328 785;" xml:space="preserve">
<style type="text/css">
	.st0{fill:#0084BD;}
</style>
<path class="st0" d="M935.7,548.9c-19.7,56.6,12.5,88,72.8,100.9c9.3-30.3,15.4-61.3,29.4-90.4c20.5-42.7,81.4-12,250.4-144
	c26-20.3,25.6-47.6-3.7-59.8c-286-119.7-321.8-103.2-326.9-183.5c-39.9,12.8-46.3,35.3-44.7,57.9c1.4,19.5-7.8,26.7-32.1,32.7
	c-88.3,22.1-174.6,49.4-263.7,68.8c-150.9,32.9-323.9-6.6-349.8-60.4c-24.8-51.4-62.7-82.3-139.2-106.9c18.3,123.4,7.8,87,55,131.7
	c-88,87.9-72.3,89.1-177.2,101c79.3,36.7,175.8,24.6,225.7-23c37.8-36.1,44.9-34.2,91.7-8.1C664.4,556.5,734,543.4,935.7,548.9z"/>
</svg>
